PathFileType	4	(X/Y/Z)	Walk4.trc
DataRate	CameraRate	NumFrames	NumMarkers	Units	OrigDataRate	OrigDataStartFrame	OrigNumFrames
200.000000	200.000000	6	61	mm	200.000000	591	877
Frame#	Times		RCAR		LTH3		RTH2		LBHD		LWRU		LUA1		LFA1		LCAR		RFA1		LElbow		RTB3		RTB1		RToe		RTB2		RMT5		RBHD		LWRR		LTH2		LElbowM		RPSI		C7		RLFC		RMT1		LTH4		STRN		LASI		RLMAL		RBack		T10		LTH1		LPSI		CLAV		LLFC		RUA1		LACR1		RCAL		LTB3		RElbowM		RTH3		LCAL		RTH1		RFHD		RElbow		LTB1		LMMAL		LTB2		LFHD		RTH4		RASI		LMFC		LTB4		RMMAL		LMT5		RMFC		RACR1		RWRR		RWRU		LLMAL		RTB4		LToe		LMT1
			X1	Y1	Z1	X2	Y2	Z2	X3	Y3	Z3	X4	Y4	Z4	X5	Y5	Z5	X6	Y6	Z6	X7	Y7	Z7	X8	Y8	Z8	X9	Y9	Z9	X10	Y10	Z10	X11	Y11	Z11	X12	Y12	Z12	X13	Y13	Z13	X14	Y14	Z14	X15	Y15	Z15	X16	Y16	Z16	X17	Y17	Z17	X18	Y18	Z18	X19	Y19	Z19	X20	Y20	Z20	X21	Y21	Z21	X22	Y22	Z22	X23	Y23	Z23	X24	Y24	Z24	X25	Y25	Z25	X26	Y26	Z26	X27	Y27	Z27	X28	Y28	Z28	X29	Y29	Z29	X30	Y30	Z30	X31	Y31	Z31	X32	Y32	Z32	X33	Y33	Z33	X34	Y34	Z34	X35	Y35	Z35	X36	Y36	Z36	X37	Y37	Z37	X38	Y38	Z38	X39	Y39	Z39	X40	Y40	Z40	X41	Y41	Z41	X42	Y42	Z42	X43	Y43	Z43	X44	Y44	Z44	X45	Y45	Z45	X46	Y46	Z46	X47	Y47	Z47	X48	Y48	Z48	X49	Y49	Z49	X50	Y50	Z50	X51	Y51	Z51	X52	Y52	Z52	X53	Y53	Z53	X54	Y54	Z54	X55	Y55	Z55	X56	Y56	Z56	X57	Y57	Z57	X58	Y58	Z58	X59	Y59	Z59	X60	Y60	Z60	X61	Y61	Z61

591	2.955	-303.89	855.25	260.04	-408.77	614.25	-182.71	-406.31	683.44	147.26	-501.04	1631.7	-121.56	-539.82	841.99	-290.95	-527.95	1278.1	-293.83	-560.89	973.77	-307.6	-473.78	794.09	-293.73	-433.72	988.14	270.06	-569.32	1125.4	-307.02	-692.09	241.27	83.15	-544.79	354.48	102.19	-728.97	37.649	112.02	-645.68	314.67	152.98	-805.04	86.204	151.83	-493.8	1644	19.762	-472.26	850.11	-243.95	-360.83	721.69	-178.85	-601.77	1123.2	-236.38	-639.14	1012.3	20.929	-530.69	1505.3	-38.816	-509.92	481.65	166.78	-762.16	56.89	84.537	-427.73	703.41	-199.82	-358.26	1241.3	-42.207	-428.53	1030	-166.6	-819.39	194.71	115	-601.68	1424.4	102.05	-640.39	1284.2	-26.692	-444.15	794.46	-213.37	-641.25	1012.6	-56.815	-401.16	1415	-42.118	-394.57	513.79	-172.79	-463.95	1288.5	218.14	-468.58	1452.1	-208.12	-871.61	210.48	55.629	-376.99	194.32	-93.347	-521.46	1115.4	184.59	-482.19	591.27	169.07	-491.15	26.683	-97.11	-476.11	781.37	169.84	-317.63	1672.7	-12.981	-489.47	1132.9	258.48	-348.5	378.51	-94.248	-408.08	88.438	-54.073	-382.04	292.66	-164.61	-320.29	1667.3	-89.166	-476.78	685.47	173.09	-435.69	1029.1	123.35	-390.05	522.02	-43.447	-362.85	289.47	-92.324	-768.96	180.29	44.161	-331.22	22.43	-169.55	-476.04	482.48	38.044	-446.16	1458	117.84	-320.17	892.46	205.66	-371.77	865.89	258.1	-430.4	68.129	-136.78	-618	296.23	91.528	-232.53	29.669	-95.124	-287.53	38.577	-82.319
592	2.96	-302.82	854.02	260.78	-405.68	614.27	-183.02	-398.39	685.24	147.86	-495.93	1632.4	-121.82	-530.6	842.79	-292.2	-521.59	1279	-294.59	-552.64	974.49	-308.98	-463.99	795.64	-295.29	-431.37	988.35	269.95	-562.17	1126.1	-308.28	-681.86	242.84	83.328	-534.48	355.69	102.62	-719.07	39.276	112.94	-635.45	316.27	153.14	-795.16	88.517	152.11	-488.77	1644.8	19.513	-462.95	851.57	-245.41	-356.96	721.43	-179.2	-594.85	1123.6	-237.76	-633.94	1013	20.086	-525.48	1506	-39.209	-499.79	482.69	167.16	-752.08	58.807	85.191	-424.05	703.54	-200.14	-353.02	1242	-42.334	-423	1030.7	-166.63	-809.42	196.78	114.84	-596.86	1425	101.3	-635.17	1284.8	-27.549	-439.82	794.72	-213.74	-636.04	1013.4	-57.635	-396	1415.8	-42.295	-392.17	513.63	-173.02	-459.91	1289	217.87	-463.05	1452.9	-208.38	-861.51	212.36	55.261	-376.38	194.11	-93.356	-517.6	1116	183.83	-473.44	592.22	169.38	-491.17	26.712	-97.118	-469.44	782.33	169.77	-312.59	1673.6	-13.135	-485.86	1133.4	257.73	-346.95	378.18	-94.391	-408.05	88.437	-54.027	-380.78	292.4	-164.7	-315.2	1668.1	-89.324	-469.16	686.47	173.22	-429.22	1029.5	122.54	-387.98	521.91	-43.605	-361.83	289.21	-92.356	-758.66	181.92	44.243	-331.22	22.436	-169.53	-465.14	483.52	38.535	-441.34	1458.6	117.71	-318.54	891.32	206.28	-370.51	865.48	258.72	-430.35	68.148	-136.75	-607.64	297.64	91.826	-232.49	29.644	-95.168	-287.55	38.57	-82.308
593	2.965	-301.78	852.84	261.54	-402.57	614.31	-183.3	-390.54	687.12	148.43	-490.82	1633.2	-122.04	-521.34	843.62	-293.44	-515.21	1279.9	-295.33	-544.35	975.24	-310.36	-454.16	797.23	-296.86	-429.06	988.58	269.89	-554.98	1126.8	-309.52	-671.44	244.25	83.518	-524.13	356.94	103.1	-708.6	40.814	113.79	-625.13	317.79	153.31	-784.84	90.524	152.36	-483.75	1645.5	19.303	-453.61	853.05	-246.86	-353.11	721.21	-179.49	-587.89	1123.9	-239.12	-628.76	1013.7	19.275	-520.29	1506.7	-39.573	-489.75	483.84	167.55	-741.48	60.552	85.782	-420.37	703.7	-200.44	-347.8	1242.8	-42.423	-417.52	1031.3	-166.65	-799.19	198.53	114.68	-592.05	1425.6	100.56	-629.97	1285.6	-28.4	-435.49	795	-214.08	-630.85	1014.2	-58.423	-390.84	1416.5	-42.447	-389.81	513.49	-173.22	-455.91	1289.5	217.63	-457.52	1453.7	-208.61	-851.18	213.83	54.915	-375.81	193.9	-93.349	-513.77	1116.7	183.11	-464.75	593.27	169.68	-491.19	26.74	-97.126	-462.79	783.37	169.69	-307.56	1674.4	-13.245	-482.3	1133.9	257.02	-345.46	377.86	-94.501	-408.02	88.435	-53.981	-379.54	292.15	-164.77	-310.13	1669	-89.437	-461.58	687.55	173.37	-422.88	1029.9	121.82	-385.89	521.79	-43.728	-360.87	288.96	-92.36	-748.12	183.35	44.297	-331.23	22.439	-169.52	-454.36	484.67	39.03	-436.54	1459.2	117.6	-316.96	890.23	206.93	-369.29	865.14	259.37	-430.3	68.169	-136.73	-597.16	298.98	92.145	-232.46	29.614	-95.209	-287.56	38.561	-82.296
594	2.97	-300.78	851.72	262.32	-399.47	614.37	-183.55	-382.74	689.07	148.97	-485.72	1633.9	-122.23	-512.04	844.48	-294.68	-508.8	1280.8	-296.04	-536.01	976.03	-311.75	-444.29	798.87	-298.45	-426.79	988.84	269.85	-547.77	1127.5	-310.74	-660.83	245.51	83.721	-513.74	358.19	103.62	-697.58	42.238	114.54	-614.73	319.22	153.49	-774.09	92.208	152.58	-478.74	1646.2	19.13	-444.23	854.56	-248.32	-349.27	721.01	-179.7	-580.89	1124.3	-240.48	-623.61	1014.4	18.499	-515.1	1507.5	-39.909	-479.78	485.06	167.94	-730.39	62.104	86.301	-416.7	703.87	-200.71	-342.6	1243.5	-42.477	-412.1	1032	-166.66	-788.71	199.94	114.52	-587.26	1426.2	99.832	-624.79	1286.3	-29.243	-431.16	795.28	-214.39	-625.69	1015	-59.177	-385.7	1417.3	-42.575	-387.49	513.36	-173.4	-451.94	1290	217.41	-452	1454.6	-208.8	-840.66	214.88	54.593	-375.25	193.7	-93.328	-509.99	1117.3	182.43	-456.11	594.41	169.97	-491.21	26.768	-97.131	-456.16	784.49	169.62	-302.54	1675.3	-13.313	-478.78	1134.3	256.35	-344.03	377.54	-94.582	-407.98	88.432	-53.935	-378.31	291.91	-164.83	-305.07	1669.8	-89.509	-454.03	688.71	173.53	-416.68	1030.4	121.19	-383.75	521.64	-43.822	-359.95	288.71	-92.339	-737.34	184.56	44.325	-331.23	22.441	-169.5	-443.69	485.91	39.533	-431.76	1459.8	117.52	-315.42	889.18	207.61	-368.1	864.84	260.07	-430.25	68.193	-136.71	-586.55	300.26	92.485	-232.42	29.581	-95.248	-287.57	38.55	-82.282
595	2.975	-299.81	850.66	263.12	-396.38	614.44	-183.78	-375	691.07	149.46	-480.63	1634.6	-122.38	-502.7	845.38	-295.93	-502.38	1281.7	-296.72	-527.64	976.84	-313.13	-434.4	800.56	-300.05	-424.55	989.12	269.85	-540.52	1128.3	-311.95	-650.03	246.6	83.937	-503.31	359.46	104.19	-686.04	43.525	115.18	-604.25	320.55	153.69	-762.91	93.556	152.76	-473.74	1646.9	18.991	-434.82	856.1	-249.77	-345.47	720.81	-179.85	-573.87	1124.7	-241.81	-618.48	1015.2	17.76	-509.92	1508.2	-40.219	-469.89	486.34	168.34	-718.82	63.452	86.743	-413.05	704.05	-200.96	-337.43	1244.2	-42.498	-406.73	1032.6	-166.68	-777.98	201.01	114.36	-582.49	1426.8	99.128	-619.64	1287	-30.076	-426.83	795.57	-214.68	-620.55	1015.7	-59.896	-380.56	1418	-42.681	-385.22	513.24	-173.55	-447.99	1290.5	217.2	-446.48	1455.5	-208.97	-829.92	215.52	54.297	-374.72	193.51	-93.297	-506.25	1117.9	181.78	-447.52	595.62	170.27	-491.23	26.796	-97.133	-449.55	785.66	169.56	-297.52	1676.1	-13.342	-475.32	1134.8	255.73	-342.65	377.24	-94.64	-407.95	88.426	-53.887	-377.12	291.68	-164.88	-300.02	1670.7	-89.541	-446.5	689.93	173.72	-410.65	1030.9	120.66	-381.59	521.47	-43.888	-359.06	288.47	-92.3	-726.32	185.56	44.329	-331.23	22.441	-169.48	-433.12	487.22	40.046	-427	1460.4	117.46	-313.93	888.19	208.31	-366.93	864.61	260.8	-430.19	68.221	-136.68	-575.83	301.45	92.845	-232.38	29.546	-95.283	-287.57	38.537	-82.266
596	2.98	-298.86	849.66	263.94	-393.32	614.53	-183.99	-367.32	693.13	149.91	-475.55	1635.4	-122.49	-493.32	846.31	-297.18	-495.94	1282.7	-297.36	-519.24	977.69	-314.5	-424.48	802.28	-301.66	-422.34	989.42	269.88	-533.24	1129	-313.14	-639.06	247.53	84.163	-492.83	360.72	104.8	-674	44.663	115.72	-593.7	321.78	153.89	-751.31	94.564	152.89	-468.75	1647.6	18.884	-425.39	857.67	-251.23	-341.7	720.61	-179.95	-566.81	1125.1	-243.12	-613.36	1015.9	17.061	-504.76	1509	-40.504	-460.07	487.68	168.74	-706.79	64.586	87.104	-409.44	704.22	-201.18	-332.28	1244.9	-42.49	-401.42	1033.2	-166.7	-767.01	201.74	114.22	-577.72	1427.3	98.443	-614.5	1287.7	-30.896	-422.53	795.85	-214.95	-615.44	1016.5	-60.58	-375.43	1418.7	-42.766	-383.01	513.12	-173.67	-444.07	1290.9	217.01	-440.97	1456.3	-209.12	-818.99	215.75	54.027	-374.21	193.33	-93.26	-502.55	1118.5	181.17	-438.97	596.9	170.57	-491.25	26.823	-97.13	-442.97	786.89	169.5	-292.51	1676.9	-13.336	-471.91	1135.3	255.15	-341.31	376.95	-94.682	-407.91	88.417	-53.837	-375.97	291.46	-164.91	-294.97	1671.6	-89.536	-438.99	691.21	173.93	-404.77	1031.4	120.21	-379.42	521.28	-43.932	-358.2	288.24	-92.247	-715.07	186.33	44.311	-331.24	22.441	-169.46	-422.66	488.58	40.571	-422.25	1461	117.42	-312.47	887.25	209.04	-365.8	864.43	261.56	-430.14	68.254	-136.66	-564.99	302.56	93.222	-232.35	29.51	-95.314	-287.58	38.522	-82.249
